<svg width="247" height="247" viewBox="0 0 247 247" fill="none" xmlns="http://www.w3.org/2000/svg">
<path d="M170.584 117.634V129.366H147.042V141.176H76.4928V152.908H111.767V164.641H123.5V176.451H135.31V188.183H182.317V199.916H194.127V211.725H205.859V223.458H217.592V176.451H229.401V164.641H241.134V117.634H229.401V105.824H217.592V94.0915H194.127V58.8168H182.317V117.634H170.584Z" fill="#000001"/>
<path d="M182.317 47.0072H170.584V58.8169H182.317V47.0072Z" fill="#000001"/>
<path d="M158.775 82.3591H135.31V105.824H158.775V82.3591Z" fill="#000001"/>
<path d="M170.584 35.2747H147.042V47.0072H170.584V35.2747Z" fill="#000001"/>
<path d="M111.768 82.3591H88.2253V105.824H111.768V82.3591Z" fill="#000001"/>
<path d="M76.4928 152.908H64.6831V164.641H76.4928V152.908Z" fill="#000001"/>
<path d="M147.042 23.5422H52.9507V35.2747H147.042V23.5422Z" fill="#000001"/>
<path d="M52.9506 141.176H41.2181V188.183H52.9506V176.451H64.6831V164.641H52.9506V141.176Z" fill="#000001"/>
<path d="M64.6831 82.3591H41.2181V105.824H64.6831V82.3591Z" fill="#000001"/>
<path d="M52.9506 35.2747H29.4084V47.0072H52.9506V35.2747Z" fill="#000001"/>
<path d="M41.2181 129.366H29.4084V141.176H41.2181V129.366Z" fill="#000001"/>
<path d="M29.4085 117.634H17.676V129.366H29.4085V117.634Z" fill="#000001"/>
<path d="M29.4085 47.0072H17.676V58.8169H29.4085V47.0072Z" fill="#000001"/>
<path d="M17.676 58.8168H5.86627V117.634H17.676V58.8168Z" fill="#000001"/>
</svg>
