<svg width="188" height="179" viewBox="0 0 188 179" fill="none" xmlns="http://www.w3.org/2000/svg">
<path d="M161.122 42.5685H152.192V85.1928H161.122V42.5685Z" fill="#FF0000"/>
<path d="M152.192 85.1928H143.262V110.756H152.192V85.1928Z" fill="#FF0000"/>
<path d="M152.192 25.5634H143.262V42.5684H152.192V25.5634Z" fill="#FF0000"/>
<path d="M143.262 110.756H134.273V127.817H143.262V110.756Z" fill="#FF0000"/>
<path d="M143.262 17.005H134.273V25.5634H143.262V17.005Z" fill="#FF0000"/>
<path d="M134.273 127.817H125.343V144.878H134.273V127.817Z" fill="#FF0000"/>
<path d="M125.343 68.1878H116.413V51.1269H107.424V42.5684H98.4943V34.0659H107.424V25.5634H80.5756V34.0659H71.6456V42.5684H62.6568V51.1269H53.7268V76.6903H62.6568V85.1928H71.6456V93.7513H80.5756V102.254H107.424V93.7513H116.413V85.1928H125.343V76.6903H134.273V51.1269H125.343V68.1878Z" fill="#FF0000"/>
<path d="M125.343 144.878H116.413V153.381H125.343V144.878Z" fill="#FF0000"/>
<path d="M125.343 42.5685H116.413V51.1269H125.343V42.5685Z" fill="#FF0000"/>
<path d="M134.273 8.5025H116.413V17.005H134.273V8.5025Z" fill="#FF0000"/>
<path d="M116.413 153.381H107.424V161.939H116.413V153.381Z" fill="#FF0000"/>
<path d="M116.413 34.0659H107.424V42.5684H116.413V34.0659Z" fill="#FF0000"/>
<path d="M107.424 161.939H98.4944V170.442H107.424V161.939Z" fill="#FF0000"/>
<path d="M98.4944 170.442H89.5056V179H98.4944V170.442Z" fill="#FF0000"/>
<path d="M89.5056 161.939H80.5756V170.442H89.5056V161.939Z" fill="#FF0000"/>
<path d="M116.413 0H71.6456V8.5025H116.413V0Z" fill="#FF0000"/>
<path d="M80.5756 153.381H71.6456V161.939H80.5756V153.381Z" fill="#FF0000"/>
<path d="M71.6456 144.878H62.6569V153.381H71.6456V144.878Z" fill="#FF0000"/>
<path d="M71.6456 8.5025H53.7268V17.005H71.6456V8.5025Z" fill="#FF0000"/>
<path d="M62.6568 127.817H53.7268V144.878H62.6568V127.817Z" fill="#FF0000"/>
<path d="M53.7269 110.756H44.7382V127.817H53.7269V110.756Z" fill="#FF0000"/>
<path d="M53.7269 17.005H44.7382V25.5634H53.7269V17.005Z" fill="#FF0000"/>
<path d="M44.7381 85.1928H35.8081V110.756H44.7381V85.1928Z" fill="#FF0000"/>
<path d="M44.7381 25.5634H35.8081V42.5684H44.7381V25.5634Z" fill="#FF0000"/>
<path d="M35.8081 42.5685H26.8781V85.1928H35.8081V42.5685Z" fill="#FF0000"/>
</svg>
