<svg width="172" height="172" viewBox="0 0 172 172" fill="none" xmlns="http://www.w3.org/2000/svg">
<!-- Black outline -->
<path d="M147.436 8.17001H139.266V163.776H147.436V8.17001Z" fill="#000000"/>
<path d="M139.266 163.776H122.872V172H139.266V163.776Z" fill="#000000"/>
<path d="M122.873 155.606H114.703V163.776H122.873V155.606Z" fill="#000000"/>
<path d="M114.703 147.436H106.479V155.606H114.703V147.436Z" fill="#000000"/>
<path d="M106.479 139.213H98.3087V147.436H106.479V139.213Z" fill="#000000"/>
<path d="M98.3088 131.042H90.085V139.212H98.3088V131.042Z" fill="#000000"/>
<path d="M90.085 122.819H81.915V131.042H90.085V122.819Z" fill="#000000"/>
<path d="M81.915 131.042H73.745V139.212H81.915V131.042Z" fill="#000000"/>
<path d="M73.745 139.213H65.5212V147.436H73.745V139.213Z" fill="#000000"/>
<path d="M65.5213 147.436H57.3513V155.606H65.5213V147.436Z" fill="#000000"/>
<path d="M57.3512 155.606H49.1812V163.776H57.3512V155.606Z" fill="#000000"/>
<path d="M139.266 0H32.7875V8.17H139.266V0Z" fill="#000000"/>
<path d="M49.1813 163.776H32.7875V172H49.1813V163.776Z" fill="#000000"/>
<path d="M32.7875 8.17001H24.5638V163.776H32.7875V8.17001Z" fill="#000000"/>

<!-- Red fill inside -->
<path d="M139.266 8.17H32.7875V163.776H49.1813V155.606H57.3512V147.436H65.5213V139.213H73.745V131.042H81.915V122.819H90.085V131.042H98.3088V139.213H106.479V147.436H114.703V155.606H122.873V163.776H139.266V8.17Z" fill="#FF0000"/>

<!-- Top section fill -->
<path d="M122.872 8.17H49.1813V73.6913H122.872V8.17Z" fill="#FF0000"/>

<!-- Label area (darker red) -->
<path d="M114.702 16.34H57.3513V40.9575H114.702V16.34Z" fill="#CC0000"/>
</svg>
